# AST/ASF file generated using VICON BodyLanguage
# -----------------------------------------------
:version 1.10
:name VICON
:units
  mass 1.0
  length 0.45
  angle deg
:documentation
   .ast/.asf automatically generated from VICON data using
   VICON BodyBuilder and BodyLanguage model FoxedUp or BRILLIANT.MOD
:root
   order TX TY TZ RX RY RZ
   axis XYZ
   position 0 0 0  
   orientation 0 0 0 
:bonedata
  begin
     id 1 
     name lhipjoint
     direction 0.623415 -0.642378 0.445763 
     length 2.49859 
     axis 0 0 0  XYZ
  end
  begin
     id 2 
     name lfemur
     direction 0.34202 -0.939693 0  
     length 6.69689  
     axis 0 0 20  XYZ
    dof rx ry rz
    limits (-160.0 20.0)
           (-70.0 70.0)
           (-60.0 70.0)
  end
  begin
     id 3 
     name ltibia
     direction 0.34202 -0.939693 0   
     length 7.37574   
     axis 0 0 20   XYZ
    dof rx
    limits (-10.0 170.0)
  end
  begin
     id 4 
     name lfoot
     direction 0.084323 -0.231675 0.969132   
     length 2.09111   
     axis -90 7.62852e-016 20   XYZ
    dof rx rz
    limits (-45.0 90.0)
           (-70.0 20.0)
  end
  begin
     id 5 
     name ltoes
     direction 1.5357e-011 -4.21957e-011 1   
     length 1.04989   
     axis -90 7.62852e-016 20   XYZ
    dof rx
    limits (-90.0 20.0)
  end
  begin
     id 6 
     name rhipjoint
     direction -0.605402 -0.653903 0.45376   
     length 2.45455  
     axis 0 0 0  XYZ 
  end
  begin
     id 7 
     name rfemur
     direction -0.34202 -0.939693 0   
     length 6.64523   
     axis 0 0 -20   XYZ
    dof rx ry rz
    limits (-160.0 20.0)
           (-70.0 70.0)
           (-70.0 60.0)
  end
  begin
     id 8 
     name rtibia
     direction -0.34202 -0.939693 0   
     length 7.3339   
     axis 0 0 -20   XYZ
    dof rx
    limits (-10.0 170.0)
 end
 begin
     id 9 
     name rfoot
     direction -0.120854 -0.332043 0.93549   
     length 2.23135  
     axis -90 -7.62852e-016 -20   XYZ
    dof rx rz
    limits (-45.0 90.0)
           (-20.0 70.0)
  end
  begin
     id 10 
     name rtoes
     direction -1.53563e-011 -4.21914e-011 1   
     length 1.10614   
     axis -90 -7.62852e-016 -20   XYZ
    dof rx
    limits (-90.0 20.0)
  end
  begin
     id 11 
     name lowerback
     direction 0.0319682 0.998615 -0.0417941   
     length 2.02718   
     axis 0 0 0   XYZ
    dof rx ry rz
    limits (-20.0 45.0)
           (-30.0 30.0)
           (-30.0 30.0)
  end
  begin
     id 12 
     name upperback
     direction 7.63181e-005 0.995808 0.0914691   
     length 1.97539   
     axis 0 0 0   XYZ
    dof rx ry rz
    limits (-20.0 45.0)
           (-30.0 30.0)
           (-30.0 30.0)
  end
  begin
     id 13 
     name thorax
     direction -0.016423 0.993627 0.111514   
     length 2.00349   
     axis 0 0 0   XYZ
    dof rx ry rz
    limits (-20.0 45.0)
           (-30.0 30.0)
           (-30.0 30.0)
  end
  begin
     id 14 
     name lowerneck
     direction -0.174763 0.981668 -0.0760716   
     length 1.71436   
     axis 0 0 0   XYZ
    dof rx ry rz
    limits (-20.0 45.0)
           (-30.0 30.0)
           (-30.0 30.0)
  end
  begin
     id 15 
     name upperneck
     direction 0.345458 0.934587 -0.0848868   
     length 1.72805   
     axis 0 0 0   XYZ
    dof rx ry rz
    limits (-20.0 45.0)
           (-30.0 30.0)
           (-30.0 30.0)
  end
  begin
     id 16
     name head
     direction 0.13001 0.989848 -0.0574291  
     length 1.767  
     axis 0 0 0   XYZ
    dof rx ry rz
    limits (-20.0 45.0)
           (-30.0 30.0)
           (-30.0 30.0)
  end
  begin
     id 17 
     name lclavicle
     direction 0.952951 0.290122 0.0878234  
     length 3.54654  
     axis 0 0 0   XYZ
    dof ry rz
    limits (-20.0 10.0)
           (0.0 20.0)
  end
  begin
     id 18 
     name lhumerus
     direction 1 -4.48957e-011 -4.56525e-028   
     length 5.19807   
     axis 180 -30 -90   XYZ
    dof rx ry rz
    limits (-60.0 90.0)
           (-90.0 90.0)
           (-90.0 90.0)
  end
  begin
     id 19
     name lradius
     direction 1 -4.48979e-011 -2.0317e-027   
     length 3.0937   
     axis 180 -30 -90   XYZ
    dof rx
    limits (-10.0 170.0)
  end
  begin
     id 20
     name lwrist
     direction 1 -4.48953e-011 -3.05809e-027   
     length 1.54685   
     axis 8.48514e-016 90 90   XYZ
    dof ry
    limits (-180.0 0.0)
 end
  begin
     id 21 
     name lhand
     direction 1 -4.48952e-011 -6.11639e-027   
     length 0.672632   
     axis 3.9013e-015 90 90   XYZ
    dof rx rz
    limits (-90.0 90.0)
           (-45.0 45.0)
  end
  begin
     id 22 
     name lfingers
     direction 1 -4.48925e-011 -1.22426e-026   
     length 0.542293   
     axis 7.80276e-015 90 90   XYZ
    dof rx
    limits (0.0 90.0)
  end
  begin
     id 23
     name lthumb
     direction 0.707107 -6.3486e-011 0.707107   
     length 0.778628   
     axis -90 45 5.37419e-014   XYZ
    dof rx rz
    limits (-45.0 45.0)
           (-45.0 45.0)
  end
  begin
     id 24 
     name rclavicle
     direction -0.960732 0.273675 -0.0457849   
     length 3.52079  
     axis 0 0 0   XYZ 
    dof ry rz
    limits (-10.0 20.0)
           (-20.0 0.0)
  end
  begin
     id 25 
     name rhumerus
     direction -1 -4.48976e-011 -1.63613e-027  
     length 5.45222   
     axis 180 30 90   XYZ
    dof rx ry rz
    limits (-90.0 60.0)
           (-90.0 90.0)
           (-90.0 90.0)
  end
  begin
     id 26 
     name rradius
     direction -1 -4.48957e-011 -7.00033e-028   
     length 3.01284   
     axis 180 30 90   XYZ
    dof rx
    limits (-10.0 170.0)
  end
  begin
     id 27 
     name rwrist
     direction -1 -4.48983e-011 -3.05543e-027   
     length 1.50642   
     axis 8.48514e-016 -90 -90   XYZ
    dof ry
    limits (-180.0 0.0)
  end
  begin
     id 28
     name rhand
     direction -1 -4.48984e-011 -6.11072e-027   
     length 0.622296   
     axis 3.9013e-015 -90 -90   XYZ
    dof rx rz
    limits (-90.0 90.0)
           (-45.0 45.0)
  end
  begin
     id 29
     name rfingers
     direction -1 -4.48865e-011 -1.22637e-026   
     length 0.501711   
     axis 7.80276e-015 -90 -90   XYZ
    dof rx
    limits (0.0 90.0)
  end
  begin
     id 30
     name rthumb
     direction -0.707107 -6.34932e-011 0.707107   
     length 0.72036   
     axis -90 -45 -5.37419e-014   XYZ
    dof rx rz
    limits (-45.0 45.0)
           (-45.0 45.0)
  end
:hierarchy
  begin
    root lhipjoint rhipjoint lowerback
    lhipjoint lfemur
    lfemur ltibia
    ltibia lfoot
    lfoot ltoes
    rhipjoint rfemur
    rfemur rtibia
    rtibia rfoot
    rfoot rtoes
    lowerback upperback
    upperback thorax
    thorax lowerneck lclavicle rclavicle
    lowerneck upperneck
    upperneck head
    lclavicle lhumerus
    lhumerus lradius
    lradius lwrist
    lwrist lhand lthumb
    lhand lfingers
    rclavicle rhumerus
    rhumerus rradius
    rradius rwrist
    rwrist rhand rthumb
    rhand rfingers
  end

#!OML:ASF H:\Not Pregnant\Project 1\Capture day 1\Session 1\non-pregnant.ASF
:FULLY-SPECIFIED
:DEGREES
162
root 5.37151 15.4771 12.831 30.9803 0.914519 -8.29204
lowerback 8.84765 1.2056 10.3266
upperback -5.36215 3.16059 1.33206
thorax -10.3713 0.846429 -4.89555
lowerneck 17.4188 -10.3567 -30.4098
upperneck -15.0649 -17.3564 45.4051
head 1.14096 -11.4337 24.5695
rclavicle -8.29926e-015 -2.18663e-015
rhumerus -15.8637 12.0727 -91.1078
rradius 25.0604
rwrist 24.4446
rhand -8.7795 -1.34886
rfingers 7.12502
rthumb 17.1587 -30.6112
lclavicle -8.29926e-015 -2.18663e-015
lhumerus -25.9494 -8.23733 89.9224
lradius 31.2714
lwrist 30.956
lhand -15.2185 -10.0405
lfingers 7.12502
lthumb 10.954 19.6538
rfemur -54.9028 -4.46346 40.7989
rtibia 44.803
rfoot -19.302 15.8542
rtoes 3.95021
lfemur -54.1959 3.30155 -11.915
ltibia 67.1978
lfoot -23.8403 0.617853
ltoes -32.554
163
root 5.36363 15.4684 12.8173 31.4067 0.931624 -8.25781
lowerback 9.06548 1.16695 10.2766
upperback -5.27592 3.12659 1.36629
thorax -10.4132 0.834966 -4.83313
lowerneck 17.3171 -10.3461 -30.3944
upperneck -15.2815 -17.2557 45.4661
head 1.072 -11.3873 24.6439
rclavicle -1.03865e-014 -2.0276e-014
rhumerus -15.2794 12.1948 -90.9522
rradius 25.3736
rwrist 24.1449
rhand -8.8066 -1.38117
rfingers 7.12502
rthumb 17.1326 -30.6458
lclavicle -1.03865e-014 -2.0276e-014
lhumerus -25.3741 -8.26261 89.7353
lradius 31.1096
lwrist 30.7385
lhand -15.1156 -10.1118
lfingers 7.12502
lthumb 11.0533 19.5771
rfemur -55.5417 -4.36745 40.8525
rtibia 44.9912
rfoot -19.1256 16.0443
rtoes 4.07025
lfemur -54.0039 3.41588 -12.0635
ltibia 67.6973
lfoot -23.6513 0.590855
ltoes -32.6086
164
root 5.35616 15.4585 12.8041 31.8674 0.922236 -8.21939
lowerback 9.2579 1.13958 10.2089
upperback -5.1992 3.10195 1.39381
thorax -10.449 0.829086 -4.76857
lowerneck 17.2122 -10.3377 -30.3796
upperneck -15.4892 -17.1603 45.5272
head 1.00853 -11.3434 24.7164
rclavicle 1.38652e-014 -1.41137e-014
rhumerus -14.6997 12.3337 -90.7968
rradius 25.7028
rwrist 23.8272
rhand -8.82006 -1.41463
rfingers 7.12502
rthumb 17.1196 -30.6804
lclavicle 1.38652e-014 -1.41137e-014
lhumerus -24.8052 -8.28134 89.5418
lradius 31.0004
lwrist 30.5737
lhand -14.9931 -10.1558
lfingers 7.12502
lthumb 11.1714 19.5268
rfemur -56.2194 -4.20537 40.8708
rtibia 45.1987
rfoot -18.9562 16.1894
rtoes 4.13342
lfemur -53.811 3.5317 -12.22
ltibia 68.1383
lfoot -23.4605 0.578135
ltoes -32.7592
165
root 5.34918 15.4473 12.7914 32.3619 0.903259 -8.18064
lowerback 9.41812 1.11955 10.1382
upperback -5.13066 3.08258 1.41671
thorax -10.4738 0.826187 -4.70687
lowerneck 17.1176 -10.3298 -30.3609
upperneck -15.6998 -17.0666 45.5881
head 0.942315 -11.3016 24.7899
rclavicle 2.03257e-014 3.47873e-015
rhumerus -14.1204 12.4846 -90.6405
rradius 26.0476
rwrist 23.4923
rhand -8.809 -1.46785
rfingers 7.12502
rthumb 17.1303 -30.7327
lclavicle 2.03257e-014 3.47873e-015
lhumerus -24.2383 -8.31021 89.3489
lradius 30.9526
lwrist 30.4755
lhand -14.8818 -10.1689
lfingers 7.12502
lthumb 11.2788 19.5078
rfemur -56.9374 -3.99453 40.8678
rtibia 45.4247
rfoot -18.7971 16.2996
rtoes 4.22023
lfemur -53.6244 3.63407 -12.3715
ltibia 68.5212
lfoot -23.2642 0.550962
ltoes -32.9305
166
root 5.34254 15.435 12.7794 32.8811 0.897024 -8.14357
lowerback 9.55506 1.0991 10.0806
upperback -5.07108 3.06176 1.43658
thorax -10.4944 0.821522 -4.65457
lowerneck 17.0398 -10.3249 -30.3316
upperneck -15.9152 -16.9772 45.6433
head 0.870628 -11.2634 24.8573
rclavicle 1.799e-014 1.74931e-014
rhumerus -13.5414 12.6433 -90.4877
rradius 26.3966
rwrist 23.1388
rhand -8.79862 -1.53793
rfingers 7.12502
rthumb 17.1403 -30.8019
lclavicle 1.799e-014 1.74931e-014
lhumerus -23.6748 -8.35814 89.1524
lradius 30.9596
lwrist 30.4506
lhand -14.7652 -10.161
lfingers 7.12502
lthumb 11.3912 19.5096
rfemur -57.6881 -3.76421 40.8633
rtibia 45.6653
rfoot -18.651 16.3851
rtoes 4.33567
lfemur -53.4378 3.71274 -12.5062
ltibia 68.8401
lfoot -23.0652 0.514423
ltoes -33.1506
167
root 5.33616 15.4221 12.7683 33.4058 0.90699 -8.1043
lowerback 9.68202 1.07485 10.0351
upperback -5.01186 3.03599 1.45491
thorax -10.5097 0.813843 -4.60932
lowerneck 16.9617 -10.3209 -30.2993
upperneck -16.1236 -16.8899 45.698
head 0.801217 -11.2263 24.923
rclavicle -3.61291e-014 -3.37934e-014
rhumerus -12.9643 12.8012 -90.3348
rradius 26.7497
rwrist 22.7872
rhand -8.79804 -1.60707
rfingers 7.12502
rthumb 17.1408 -30.871
lclavicle -3.61291e-014 -3.37934e-014
lhumerus -23.1134 -8.41911 88.9527
lradius 31.0119
lwrist 30.488
lhand -14.6276 -10.1265
lfingers 7.12502
lthumb 11.5239 19.5367
rfemur -58.4459 -3.53028 40.8568
rtibia 45.914
rfoot -18.523 16.4449
rtoes 4.49498
lfemur -53.2249 3.76666 -12.625
ltibia 69.0867
lfoot -22.8822 0.46188
ltoes -33.3995
168
root 5.33003 15.4092 12.7588 33.913 0.946809 -8.05801
lowerback 9.82039 1.04034 10.0101
upperback -4.94907 3.00031 1.47189
thorax -10.5286 0.799773 -4.57558
lowerneck 16.8854 -10.3172 -30.2663
upperneck -16.323 -16.8056 45.7525
head 0.734897 -11.1909 24.9882
rclavicle -1.3418e-015 2.48481e-014
rhumerus -12.3927 12.9513 -90.1819
rradius 27.1012
rwrist 22.4435
rhand -8.82663 -1.66884
rfingers 7.12502
rthumb 17.1133 -30.9351
lclavicle -1.3418e-015 2.48481e-014
lhumerus -22.557 -8.50327 88.7522
lradius 31.1051
lwrist 30.5889
lhand -14.4908 -10.0783
lfingers 7.12502
lthumb 11.6558 19.5774
rfemur -59.1835 -3.32486 40.8561
rtibia 46.1635
rfoot -18.4183 16.4925
rtoes 4.70953
lfemur -52.958 3.78269 -12.7235
ltibia 69.2525
lfoot -22.7167 0.386435
ltoes -33.6942
169
root 5.3242 15.3965 12.751 34.3899 1.02074 -8.00147
lowerback 9.97783 0.992916 10.0084
upperback -4.8754 2.95208 1.48844
thorax -10.5478 0.77828 -4.55354
lowerneck 16.8164 -10.3145 -30.2286
upperneck -16.5262 -16.7222 45.8058
head 0.665554 -11.1568 25.0527
rclavicle 3.62782e-015 -2.72335e-014
rhumerus -11.8173 13.0911 -90.0246
rradius 27.4444
rwrist 22.1169
rhand -8.8774 -1.72309
rfingers 7.12502
rthumb 17.0645 -30.9936
lclavicle 3.62782e-015 -2.72335e-014
lhumerus -21.9996 -8.60297 88.5512
lradius 31.2385
lwrist 30.7315
lhand -14.3542 -10.0086
lfingers 7.12502
lthumb 11.7876 19.6397
rfemur -59.8875 -3.16739 40.8668
rtibia 46.411
rfoot -18.3365 16.5327
rtoes 4.9679
lfemur -52.6215 3.7559 -12.8019
ltibia 69.3348
lfoot -22.5594 0.286716
ltoes -34.0058
170
root 5.31879 15.3843 12.7454 34.8155 1.12412 -7.93104
lowerback 10.1827 0.931042 10.0262
upperback -4.78999 2.89244 1.50498
thorax -10.5832 0.749313 -4.54188
lowerneck 16.7583 -10.3112 -30.1932
upperneck -16.7302 -16.6413 45.8572
head 0.594726 -11.1248 25.1184
rclavicle -1.65985e-014 -3.78685e-014
rhumerus -11.2436 13.2235 -89.8609
rradius 27.77
rwrist 21.8135
rhand -8.95734 -1.76278
rfingers 7.12502
rthumb 16.9875 -31.04
lclavicle -1.65985e-014 -3.78685e-014
lhumerus -21.4458 -8.7226 88.3541
lradius 31.401
lwrist 30.9132
lhand -14.2226 -9.93489
lfingers 7.12502
lthumb 11.9145 19.7061
rfemur -60.5312 -3.06774 40.8819
rtibia 46.6547
rfoot -18.2877 16.5678
rtoes 5.21964
lfemur -52.1893 3.68786 -12.8648
ltibia 69.3354
lfoot -22.3998 0.140081
ltoes -34.2589
171
root 5.31404 15.3724 12.7411 35.2226 1.26143 -7.85266
lowerback 10.414 0.855603 10.0727
upperback -4.70312 2.82243 1.52348
thorax -10.6338 0.71265 -4.54287
lowerneck 16.7042 -10.3091 -30.156
upperneck -16.9354 -16.5622 45.9035
head 0.522255 -11.0934 25.1796
rclavicle -1.799e-014 -2.73329e-014
rhumerus -10.6647 13.3522 -89.6905
rradius 28.074
rwrist 21.5345
rhand -9.04562 -1.79566
rfingers 7.12502
rthumb 16.9025 -31.0801
lclavicle -1.799e-014 -2.73329e-014
lhumerus -20.8841 -8.85356 88.1591
lradius 31.5848
lwrist 31.1166
lhand -14.1226 -9.8767
lfingers 7.12502
lthumb 12.0109 19.7587
rfemur -61.1566 -3.02156 40.9142
rtibia 46.8963
rfoot -18.2499 16.623
rtoes 5.52828
lfemur -51.7122 3.5796 -12.9071
ltibia 69.2695
lfoot -22.2287 -0.0599802
ltoes -34.4217
172
root 5.30991 15.3597 12.7368 35.6591 1.38701 -7.78098
lowerback 10.6374 0.787353 10.1247
upperback -4.625 2.76281 1.54127
thorax -10.6877 0.680166 -4.549
lowerneck 16.6444 -10.3107 -30.1183
upperneck -17.1429 -16.4866 45.9451
head 0.451059 -11.063 25.2341
rclavicle 5.96354e-016 3.57812e-015
rhumerus -10.0699 13.4765 -89.5101
rradius 28.3546
rwrist 21.2819
rhand -9.12897 -1.81265
rfingers 7.12502
rthumb 16.8223 -31.104
lclavicle 5.96354e-016 3.57812e-015
lhumerus -20.3066 -8.99049 87.9629
lradius 31.7826
lwrist 31.3255
lhand -14.0225 -9.84686
lfingers 7.12502
lthumb 12.1074 19.7828
rfemur -61.8121 -2.97659 40.9611
rtibia 47.1355
rfoot -18.2081 16.7093
rtoes 5.82638
lfemur -51.2526 3.47703 -12.9457
ltibia 69.158
lfoot -22.0478 -0.290572
ltoes -34.5298
173
root 5.30644 15.3466 12.7322 36.1335 1.49832 -7.72482
lowerback 10.8464 0.728423 10.1863
upperback -4.5568 2.71657 1.56051
thorax -10.7421 0.653216 -4.56056
lowerneck 16.5623 -10.3154 -30.081
upperneck -17.3407 -16.4124 45.9819
head 0.386819 -11.0308 25.279
rclavicle 9.93923e-016 -8.34896e-015
rhumerus -9.45729 13.5933 -89.3204
rradius 28.608
rwrist 21.0584
rhand -9.2102 -1.80853
rfingers 7.12502
rthumb 16.7441 -31.1065
lclavicle 9.93923e-016 -8.34896e-015
lhumerus -19.712 -9.13598 87.7655
lradius 31.9947
lwrist 31.5452
lhand -13.9384 -9.84788
lfingers 7.12502
lthumb 12.1885 19.777
rfemur -62.5028 -2.92235 41.0278
rtibia 47.3701
rfoot -18.1582 16.8335
rtoes 6.14759
lfemur -50.827 3.38804 -12.9751
ltibia 69.0152
lfoot -21.868 -0.555354
ltoes -34.5471
174
root 5.30369 15.3326 12.7266 36.6615 1.58684 -7.69671
lowerback 11.0323 0.683667 10.2554
upperback -4.50463 2.68966 1.58477
thorax -10.7979 0.634694 -4.57355
lowerneck 16.4515 -10.3194 -30.0498
upperneck -17.5214 -16.3357 46.015
head 0.332113 -10.9938 25.3174
rclavicle 5.26779e-015 -1.15295e-014
rhumerus -8.83121 13.7007 -89.1222
rradius 28.842
rwrist 20.8617
rhand -9.26095 -1.79231
rfingers 7.12502
rthumb 16.6952 -31.0944
lclavicle 5.26779e-015 -1.15295e-014
lhumerus -19.1021 -9.28443 87.5669
lradius 32.2174
lwrist 31.7714
lhand -13.8715 -9.88189
lfingers 7.12502
lthumb 12.253 19.7392
rfemur -63.2455 -2.84114 41.1245
rtibia 47.5971
rfoot -18.0887 17.0006
rtoes 6.48384
lfemur -50.4587 3.32743 -12.9912
ltibia 68.8528
lfoot -21.696 -0.814704
ltoes -34.5797
175
root 5.30164 15.3177 12.7203 37.2371 1.65014 -7.69453
lowerback 11.2018 0.652634 10.3267
upperback -4.46688 2.68133 1.61334
thorax -10.8576 0.624453 -4.58601
lowerneck 16.3097 -10.3209 -30.0268
upperneck -17.6834 -16.2544 46.0465
head 0.287328 -10.951 25.3524
rclavicle 8.05078e-015 -3.12092e-014
rhumerus -8.18926 13.8065 -88.914
rradius 29.0497
rwrist 20.6901
rhand -9.3154 -1.74484
rfingers 7.12502
rthumb 16.6428 -31.0513
lclavicle 8.05078e-015 -3.12092e-014
lhumerus -18.4876 -9.43604 87.3662
lradius 32.45
lwrist 32.0052
lhand -13.8148 -9.91302
lfingers 7.12502
lthumb 12.3077 19.7048
rfemur -64.0321 -2.72257 41.24
rtibia 47.8148
rfoot -18.0022 17.191
rtoes 6.78667
lfemur -50.1419 3.29965 -12.9984
ltibia 68.6715
lfoot -21.5512 -1.06366
ltoes -34.6272
176
root 5.30047 15.3022 12.7138 37.8305 1.70916 -7.71185
lowerback 11.3633 0.625378 10.4126
upperback -4.42206 2.67958 1.64751
thorax -10.9034 0.617543 -4.60129
lowerneck 16.1321 -10.3252 -30.0089
upperneck -17.8455 -16.1704 46.0826
head 0.250813 -10.9043 25.3871
rclavicle 1.87852e-014 -4.96962e-015
rhumerus -7.51309 13.9061 -88.6918
rradius 29.2376
rwrist 20.5385
rhand -9.36253 -1.68167
rfingers 7.12502
rthumb 16.5974 -30.9919
lclavicle 1.87852e-014 -4.96962e-015
lhumerus -17.8452 -9.59628 87.1587
lradius 32.6914
lwrist 32.2459
lhand -13.7667 -9.95242
lfingers 7.12502
lthumb 12.3541 19.6626
rfemur -64.8317 -2.59328 41.3755
rtibia 48.0251
rfoot -17.9107 17.3971
rtoes 7.05922
lfemur -49.8435 3.28526 -12.9903
ltibia 68.466
lfoot -21.4348 -1.29887
ltoes -34.723
